# xmcd
# 
# Track frame offsets:
#   150
#   16807
#   37295
#   55092
#   71815
#   87032
#   103372
#   120475
#   135460
#   151885
#   166780
#   183515
#   198925
#   216667
#   235302
# 
# Disc length: 3369 seconds
# 
# Revision: 2
# Processed by: cddbd v1.5.1PL2 Copyright (c) Steve Scherf et al.
# Submitted via: Synapstar 1.0 
# 
DISCID=d10d270f
DTITLE=Various Artist - MM6342
DYEAR=1900
DGENRE=Country
TTITLE0=Faith Hill - There You'll Be
TTITLE1=Tim McGraw - Angry All The Time
TTITLE2=Blake Shelton - Austin
TTITLE3=Lila McCann - Come A Little Closer
TTITLE4=Alabama - Will You Marry Me
TTITLE5=One Trick Pony - On A Night Like This
TTITLE6=Diamond Rio - Sweet Summer
TTITLE7=Clark Family Experience - Standing Still
TTITLE8=Meredith Edwards - The Bird Song
TTITLE9=Andy Griggs - How Cool Is That
TTITLE10=Mary C. Carpenter - Simple Life
TTITLE11=Mike Walker - Honey Do
TTITLE12=John Michael Montgomery - Even Then
TTITLE13=Warren Brothers - Where Does It Hurt
TTITLE14=Alan Jackson - Where I Come From
EXTD=MediaType: Karaoke CD+G Producer: Music Maestro
EXTT0=
EXTT1=
EXTT2=
EXTT3=
EXTT4=
EXTT5=
EXTT6=
EXTT7=
EXTT8=
EXTT9=
EXTT10=
EXTT11=
EXTT12=
EXTT13=
EXTT14=
PLAYORDER=
